<svg width="124" height="59" viewBox="0 0 124 59" fill="none" xmlns="http://www.w3.org/2000/svg">
<path d="M-0.000624955 11.9032L11.0074 -0.000801086L21.8874 11.9032L11.0074 23.6792L-0.000624955 11.9032ZM-0.000624955 46.3352L11.0074 34.4312L21.8874 46.3352L11.0074 58.1112L-0.000624955 46.3352ZM50.6244 11.9032L61.6324 -0.000801086L72.5124 11.9032L61.6324 23.6792L50.6244 11.9032ZM50.6244 46.3352L61.6324 34.4312L72.5124 46.3352L61.6324 58.1112L50.6244 46.3352ZM101.249 11.9032L112.257 -0.000801086L123.137 11.9032L112.257 23.6792L101.249 11.9032ZM101.249 46.3352L112.257 34.4312L123.137 46.3352L112.257 58.1112L101.249 46.3352Z" fill="black"/>
</svg>
