<?xml version="1.0" encoding="utf-8"?>
<!-- Generator: Adobe Illustrator 19.2.1, SVG Export Plug-In . SVG Version: 6.00 Build 0)  -->
<svg version="1.1" id="Layer_1" xmlns="http://www.w3.org/2000/svg" xmlns:xlink="http://www.w3.org/1999/xlink" x="0px" y="0px"
	 viewBox="0 0 792 368.1" style="enable-background:new 0 0 792 368.1;" xml:space="preserve">
<style type="text/css">
	.st0{fill:#010101;}
</style>
<g>
	<g>
		<path class="st0" d="M166.6,272.4c-4.7,1-9.4,1.5-14.2,1.5c-18.1,0-33.3-6.1-45.7-18.2c-12.3-12.1-18.5-27.5-18.5-46.2
			c0-19.3,6.2-35.1,18.5-47.4c12.3-12.3,27.9-18.5,46.7-18.5c13.1,0,24.8,3.2,34.9,9.7c10.1,6.5,16.4,15.8,18.7,27.9L165.8,201
			c-5.8-16-12.1-26.7-19-32.2c-7.3,7.7-11,18.8-11,33.4c0,12,2.9,21.7,8.7,29.1c5.8,7.4,14.1,11.1,24.7,11.1c7.8,0,17-2.7,27.7-8
			l6.5,14.7L166.6,272.4z"/>
		<path class="st0" d="M306,247.4c7.1,3,13.1,6.2,18,9.7l-0.2,12.2h-86.6l-0.2-8.7c5.3-3.3,11.6-6.4,19-9.2v-80.8l-18.7-4.7
			l-0.5-12.2c16-5.7,34.2-8.9,54.6-9.7l14.7,13.2V247.4z M283.6,133.9c-13.5-6.2-24.5-14.6-33.2-25.4c7.1-13.8,16.4-25,27.7-33.7
			c12.6,7.2,23.1,16.8,31.4,28.9C303.2,116,294.6,126.1,283.6,133.9z"/>
		<path class="st0" d="M425.8,182.3v46.2c0,6.5,3.2,9.7,9.7,9.7l19-1l1,13.2l-44.2,23.2c-9.1,0.3-17.3-2.4-24.6-8.1
			c-7.2-5.7-10.9-12.6-11.1-20.6v-62.9h-19.5l-0.2-14c6.2-5.7,13.6-11.5,22.5-17.5l15-34.2h22.5l8.2,34.7H458v14.2l-12.7,17H425.8z"
			/>
		<path class="st0" d="M636.1,253.2l-35.7,20.5c-11.3,0-20.6-6.2-27.9-18.5l-25.9,17.2l-9.5,0.7c-11.1,0-20.5-3.3-27.9-9.9
			c-7.5-6.6-11.2-14.3-11.2-23.1c0-5.7,1.8-11.3,5.4-16.8c3.6-5.6,8.9-10.1,15.8-13.6l46.9-1V190c0-12.3-3.7-20.5-11.2-24.4
			c-3.7,0.3-6.7,1.2-9.2,2.5l-7.2,27.9l-28.4,0.2c-2.8-9.6-4.2-19-4.2-27.9l1-12.2c10.6-3.8,22.7-6.9,36-9.2
			c13.4-2.3,24.2-3.5,32.3-3.5c16.1,0,28.9,6.2,38.2,18.5c2,3,3,10.6,3,23v49.9c0,5.2,2,7.7,6,7.7l8.2-0.2l5-0.3L636.1,253.2z
			 M546.8,236.4c0,4.2,1.2,7.7,3.7,10.5l15.5-3.2V225C553.2,225,546.8,228.8,546.8,236.4z"/>
	</g>
	<g>
		<path class="st0" d="M680.7,272.9c-11-5-20-11.9-27-20.7c5.8-11.2,13.3-20.4,22.5-27.4c10.3,5.8,18.8,13.7,25.6,23.5
			C696.7,258.3,689.7,266.5,680.7,272.9z"/>
		<path class="st0" d="M682.6,193.8c-11-5-20-11.9-27-20.7c5.8-11.2,13.3-20.4,22.5-27.4c10.3,5.8,18.8,13.7,25.6,23.5
			C698.6,179.2,691.6,187.4,682.6,193.8z"/>
	</g>
</g>
</svg>
