<?xml version="1.0" encoding="utf-8"?>
<!-- Generator: Adobe Illustrator 19.2.1, SVG Export Plug-In . SVG Version: 6.00 Build 0)  -->
<svg version="1.1" id="Layer_1" xmlns="http://www.w3.org/2000/svg" xmlns:xlink="http://www.w3.org/1999/xlink" x="0px" y="0px"
	 viewBox="0 0 792 740.4" style="enable-background:new 0 0 792 740.4;" xml:space="preserve">
<style type="text/css">
	.st0{fill:#010101;}
</style>
<g>
	<g>
		<path class="st0" d="M166.6,449.2c-4.7,1-9.4,1.5-14.2,1.5c-18.1,0-33.3-6.1-45.7-18.2c-12.3-12.1-18.5-27.5-18.5-46.2
			c0-19.3,6.2-35.1,18.5-47.4c12.3-12.3,27.9-18.5,46.7-18.5c13.1,0,24.8,3.2,34.9,9.7s16.4,15.8,18.7,27.9l-41.2,19.8
			c-5.8-16-12.1-26.7-19-32.2c-7.3,7.7-11,18.8-11,33.4c0,12,2.9,21.7,8.7,29.1c5.8,7.4,14.1,11.1,24.7,11.1c7.8,0,17-2.7,27.7-8
			l6.5,14.7L166.6,449.2z"/>
		<path class="st0" d="M306,424.2c7.1,3,13.1,6.2,18,9.7l-0.2,12.2h-86.6l-0.2-8.7c5.3-3.3,11.6-6.4,19-9.2v-80.8l-18.7-4.7
			l-0.5-12.2c16-5.7,34.2-8.9,54.6-9.7l14.7,13.2v90.2H306z M283.6,310.7c-13.5-6.2-24.5-14.6-33.2-25.4c7.1-13.8,16.4-25,27.7-33.7
			c12.6,7.2,23.1,16.8,31.4,28.9C303.2,292.8,294.6,302.9,283.6,310.7z"/>
		<path class="st0" d="M425.8,359.1v46.2c0,6.5,3.2,9.7,9.7,9.7l19-1l1,13.2l-44.2,23.2c-9.1,0.3-17.3-2.4-24.6-8.1
			c-7.2-5.7-10.9-12.6-11.1-20.6v-62.9h-19.5l-0.2-14c6.2-5.7,13.6-11.5,22.5-17.5l15-34.2h22.5l8.2,34.7H458V342l-12.7,17h-19.5
			V359.1z"/>
		<path class="st0" d="M636.1,430l-35.7,20.5c-11.3,0-20.6-6.2-27.9-18.5l-25.9,17.2l-9.5,0.7c-11.1,0-20.5-3.3-27.9-9.9
			c-7.5-6.6-11.2-14.3-11.2-23.1c0-5.7,1.8-11.3,5.4-16.8c3.6-5.6,8.9-10.1,15.8-13.6l46.9-1v-18.7c0-12.3-3.7-20.5-11.2-24.4
			c-3.7,0.3-6.7,1.2-9.2,2.5l-7.2,27.9l-28.4,0.2c-2.8-9.6-4.2-19-4.2-27.9l1-12.2c10.6-3.8,22.7-6.9,36-9.2
			c13.4-2.3,24.2-3.5,32.3-3.5c16.1,0,28.9,6.2,38.2,18.5c2,3,3,10.6,3,23v49.9c0,5.2,2,7.7,6,7.7l8.2-0.2l5-0.3L636.1,430z
			 M546.8,413.2c0,4.2,1.2,7.7,3.7,10.5l15.5-3.2v-18.7C553.2,401.8,546.8,405.6,546.8,413.2z"/>
	</g>
	<g>
		<path class="st0" d="M680.7,449.7c-11-5-20-11.9-27-20.7c5.8-11.2,13.3-20.4,22.5-27.4c10.3,5.8,18.8,13.7,25.6,23.5
			C696.7,435.1,689.7,443.3,680.7,449.7z"/>
		<path class="st0" d="M682.6,370.6c-11-5-20-11.9-27-20.7c5.8-11.2,13.3-20.4,22.5-27.4c10.3,5.8,18.8,13.7,25.6,23.5
			C698.6,356,691.6,364.2,682.6,370.6z"/>
	</g>
</g>
<g>
	<path d="M353.6,511.6c0,6.6-3.1,10.5-8.2,10.5c-2.9,0-4.9-1.5-6-3.7v11.7h-6.8v-28.4h6l0.2,4.2c1.1-2.8,3.4-4.6,6.7-4.6
		C350.6,501.3,353.6,505.1,353.6,511.6z M346.8,511.7c0-3.8-1.4-5.4-3.8-5.4c-2.3,0-3.7,1.8-3.7,5.2v0.4c0,3.3,1.3,5.2,3.7,5.2
		C345.3,517.1,346.8,515.4,346.8,511.7z"/>
	<path d="M372.2,501.7l-0.7,5.8c-0.5-0.3-1.5-0.6-2.5-0.6c-2.4,0-4.5,1.6-4.5,4.7v10.1h-6.8v-20h6l0.3,4.3c1-3,3-4.7,6.1-4.7
		C371,501.3,371.7,501.5,372.2,501.7z"/>
	<path d="M393.9,513.6h-13.6c0.4,2.6,1.9,3.6,4.2,3.6c2,0,3.2-0.8,3.7-2.2l5.5,1.8c-1.2,3.5-4.6,5.2-9.2,5.2
		c-7,0-10.8-3.8-10.8-10.4c0-6.6,3.8-10.4,10.4-10.4c6.5,0,10,3.8,10,10.1C394.1,512.1,394,513.1,393.9,513.6z M380.2,510h7.5
		c-0.4-2.6-1.6-3.9-3.7-3.9C381.9,506,380.6,507.2,380.2,510z"/>
	<path d="M396.4,518.6l3.5-3.8c1.2,2,3.4,2.8,5.9,2.8c1.9,0,3-0.6,3-1.4c0-0.8-1-1.2-3.6-1.8c-6.1-1.2-8.3-3.2-8.3-6.4
		s3.1-6.6,9.6-6.6c4.8,0,7.4,1.4,9.2,3.8l-3.5,3.4c-1.3-1.9-3-2.7-5.4-2.7c-2,0-3,0.7-3,1.5s0.9,1.3,3.7,1.8c5.9,1,8.3,2.9,8.3,6.4
		c0,3.7-3.1,6.6-9.5,6.6C401.8,522.1,398.4,521,396.4,518.6z"/>
	<path d="M417.7,518.6l3.5-3.8c1.2,2,3.4,2.8,5.9,2.8c1.9,0,3-0.6,3-1.4c0-0.8-1-1.2-3.6-1.8c-6.1-1.2-8.3-3.2-8.3-6.4
		s3.1-6.6,9.6-6.6c4.8,0,7.4,1.4,9.2,3.8l-3.5,3.4c-1.3-1.9-3-2.7-5.4-2.7c-2,0-3,0.7-3,1.5s0.9,1.3,3.7,1.8c5.9,1,8.3,2.9,8.3,6.4
		c0,3.7-3.1,6.6-9.5,6.6C423.1,522.1,419.8,521,417.7,518.6z"/>
</g>
<path class="st0" d="M445.9,515.9c-1.7-0.8-3.1-1.8-4.2-3.2c0.9-1.7,2.1-3.1,3.5-4.2c1.6,0.9,2.9,2.1,3.9,3.6
	C448.4,513.6,447.3,514.9,445.9,515.9z"/>
<path class="st0" d="M323.8,516c-1.7-0.8-3.1-1.8-4.2-3.2c0.9-1.7,2.1-3.1,3.5-4.2c1.6,0.9,2.9,2.1,3.9,3.6
	C326.3,513.7,325.2,515,323.8,516z"/>
</svg>
