<?xml version="1.0" encoding="utf-8"?>
<!-- Generator: Adobe Illustrator 21.0.2, SVG Export Plug-In . SVG Version: 6.00 Build 0)  -->
<svg version="1.1" id="Capa_1" xmlns="http://www.w3.org/2000/svg" xmlns:xlink="http://www.w3.org/1999/xlink" x="0px" y="0px"
	 viewBox="0 0 1920 1080" style="enable-background:new 0 0 1920 1080;" xml:space="preserve">
<style type="text/css">
	.st0{fill:#FFFFFF;stroke:#000000;stroke-width:17;stroke-miterlimit:10;}
	.st1{fill:none;stroke:#000000;stroke-width:17;stroke-miterlimit:10;}
</style>
<g>
	<path class="st0" d="M1216.5,878.9H707.6V202c146.4,0,235,0,381.4,0l124,112C1213,539.6,1216.5,653.3,1216.5,878.9z"/>
	<polyline class="st1" points="1218.1,313.5 1090,313.5 1088.2,210.2 	"/>
</g>
<g>
	<g>
		<path d="M803.3,608.4c-3.6,0.8-7.2,1.2-10.9,1.2c-13.9,0-25.6-4.7-35.1-14c-9.5-9.3-14.2-21.2-14.2-35.5c0-14.8,4.7-27,14.2-36.5
			c9.5-9.5,21.4-14.2,35.9-14.2c10.1,0,19.1,2.5,26.9,7.5c7.8,5,12.6,12.2,14.4,21.5l-31.7,15.2c-4.5-12.3-9.3-20.5-14.6-24.8
			c-5.6,5.9-8.4,14.5-8.4,25.7c0,9.2,2.2,16.7,6.7,22.4c4.5,5.7,10.8,8.5,19,8.5c6,0,13.1-2,21.3-6.1l5,11.3L803.3,608.4z"/>
		<path d="M905.5,589.2c5.5,2.3,10.1,4.8,13.8,7.5l-0.2,9.4h-66.6l-0.2-6.7c4.1-2.6,9-4.9,14.6-7.1v-62.2l-14.4-3.6l-0.4-9.4
			c12.3-4.3,26.3-6.8,42-7.5l11.3,10.2V589.2z M888.2,501.9c-10.4-4.7-18.9-11.3-25.5-19.6c5.5-10.6,12.6-19.2,21.3-25.9
			c9.7,5.5,17.8,12.9,24.2,22.3C903.3,488.2,896.6,495.9,888.2,501.9z"/>
		<path d="M983.8,539.2v35.5c0,5,2.5,7.5,7.5,7.5l14.6-0.8l0.8,10.2l-34,17.8c-7,0.3-13.3-1.8-18.9-6.2c-5.6-4.4-8.4-9.7-8.5-15.8
			V539h-15l-0.2-10.7c4.7-4.3,10.5-8.8,17.3-13.4l11.5-26.3h17.3l6.3,26.7h26.1v10.9l-9.8,13H983.8z"/>
		<path d="M1126.6,593.7l-27.4,15.7c-8.7,0-15.9-4.7-21.5-14.2l-20,13.2l-7.3,0.6c-8.6,0-15.7-2.5-21.5-7.6s-8.6-11-8.6-17.7
			c0-4.3,1.4-8.7,4.1-13c2.7-4.3,6.8-7.8,12.2-10.5l36.1-0.8v-14.4c0-9.5-2.9-15.7-8.6-18.8c-2.8,0.3-5.2,0.9-7.1,1.9l-5.6,21.5
			l-21.9,0.2c-2.2-7.4-3.3-14.6-3.3-21.5l0.8-9.4c8.2-2.9,17.4-5.3,27.7-7.1c10.3-1.8,18.6-2.7,24.8-2.7c12.4,0,22.2,4.7,29.4,14.2
			c1.5,2.3,2.3,8.2,2.3,17.7v38.4c0,4,1.5,5.9,4.6,5.9l6.3-0.2l3.8-0.2L1126.6,593.7z M1057.9,580.8c0,3.2,1,5.9,2.9,8.1l11.9-2.5
			V572C1062.8,572,1057.9,574.9,1057.9,580.8z"/>
	</g>
	<g>
		<path d="M1166,610.6c-8.4-3.8-15.4-9.2-20.8-15.9c4.5-8.6,10.2-15.7,17.3-21.1c7.9,4.5,14.5,10.5,19.7,18.1
			C1178.3,599.4,1172.9,605.7,1166,610.6z"/>
		<path d="M1167.5,549.7c-8.4-3.8-15.4-9.2-20.8-15.9c4.5-8.6,10.2-15.7,17.3-21.1c7.9,4.5,14.5,10.5,19.7,18.1
			C1179.8,538.5,1174.4,544.8,1167.5,549.7z"/>
	</g>
</g>
</svg>
